# xmcd
#
# Track frame offsets:
#	150
#	12951
#	24205
#	39186
#	57307
#	72511
#	94484
#	106418
#	122502
#	138682
#	152792
#	169634
#	187973
#	209763
#	224001
#	228855
#	247085
#	263046
#	289546
#	306728
#	328392
#
# Disc length: 4605 seconds
#
# Revision: 0
# Processed by: cddbd v1.4PL0 Copyright (c) Steve Scherf et al.
# Submitted via: dBpowerAMP V4.0
#
DISCID=4011fb15
DTITLE=CARLA - QUEL QUN 
DYEAR=2002
DGENRE=AlternRock
TTITLE0=CARLA
TTITLE1=CARLA
TTITLE2=CARLA
TTITLE3=CARLA
TTITLE4=CARLA
TTITLE5=CARLA
TTITLE6=CARLA
TTITLE7=CARLA
TTITLE8=CARLA
TTITLE9=CARLA
TTITLE10=CARLA
TTITLE11=CARLA
TTITLE12=CARLA
TTITLE13=CARLA
TTITLE14=CARLA
TTITLE15=CARLA
TTITLE16=CARLA
TTITLE17=CARLA
TTITLE18=CARLA
TTITLE19=CARLA
TTITLE20=CARLA
EXTD=CARLA BRUNI
EXTT0=
EXTT1=
EXTT2=
EXTT3=
EXTT4=
EXTT5=
EXTT6=
EXTT7=
EXTT8=
EXTT9=
EXTT10=
EXTT11=
EXTT12=
EXTT13=
EXTT14=
EXTT15=
EXTT16=
EXTT17=
EXTT18=
EXTT19=
EXTT20=
PLAYORDER=
